<svg width="1131" height="481" viewBox="0 0 1131 481" fill="none" xmlns="http://www.w3.org/2000/svg">
<g filter="url(#filter0_dddf_25_15)">
<path d="M48.5063 13L13 42.2357V187.268L86.7975 248.032V417.713L141.797 463H760.025L815.025 417.713H1020.41L1075.41 463H1113V294.465L1075.41 263.51V13H619.392L583.886 42.2357H336.038L300.532 13H48.5063Z" fill="url(#paint0_linear_25_15)" fill-opacity="0.5" shape-rendering="crispEdges"/>
<path d="M48.5063 13L13 42.2357V187.268L86.7975 248.032V417.713L141.797 463H760.025L815.025 417.713H1020.41L1075.41 463H1113V294.465L1075.41 263.51V13H619.392L583.886 42.2357H336.038L300.532 13H48.5063Z" stroke="#2AD2FB" stroke-width="5" shape-rendering="crispEdges"/>
</g>
<defs>
<filter id="filter0_dddf_25_15" x="0.5" y="0.5" width="1130" height="480" filterUnits="userSpaceOnUse" color-interpolation-filters="sRGB">
<feFlood flood-opacity="0" result="BackgroundImageFix"/>
<feColorMatrix in="SourceAlpha" type="matrix" values="0 0 0 0 0 0 0 0 0 0 0 0 0 0 0 0 0 0 127 0" result="hardAlpha"/>
<feOffset dx="10" dy="10"/>
<feGaussianBlur stdDeviation="2.5"/>
<feComposite in2="hardAlpha" operator="out"/>
<feColorMatrix type="matrix" values="0 0 0 0 0.164706 0 0 0 0 0.823529 0 0 0 0 0.984314 0 0 0 0.37 0"/>
<feBlend mode="normal" in2="BackgroundImageFix" result="effect1_dropShadow_25_15"/>
<feColorMatrix in="SourceAlpha" type="matrix" values="0 0 0 0 0 0 0 0 0 0 0 0 0 0 0 0 0 0 127 0" result="hardAlpha"/>
<feOffset dx="-5" dy="-5"/>
<feGaussianBlur stdDeviation="2.5"/>
<feComposite in2="hardAlpha" operator="out"/>
<feColorMatrix type="matrix" values="0 0 0 0 0.164706 0 0 0 0 0.823529 0 0 0 0 0.984314 0 0 0 0.48 0"/>
<feBlend mode="normal" in2="effect1_dropShadow_25_15" result="effect2_dropShadow_25_15"/>
<feColorMatrix in="SourceAlpha" type="matrix" values="0 0 0 0 0 0 0 0 0 0 0 0 0 0 0 0 0 0 127 0" result="hardAlpha"/>
<feOffset/>
<feGaussianBlur stdDeviation="2.5"/>
<feComposite in2="hardAlpha" operator="out"/>
<feColorMatrix type="matrix" values="0 0 0 0 0.164706 0 0 0 0 0.823529 0 0 0 0 0.984314 0 0 0 0.4 0"/>
<feBlend mode="normal" in2="effect2_dropShadow_25_15" result="effect3_dropShadow_25_15"/>
<feBlend mode="normal" in="SourceGraphic" in2="effect3_dropShadow_25_15" result="shape"/>
<feGaussianBlur stdDeviation="1.5" result="effect4_foregroundBlur_25_15"/>
</filter>
<linearGradient id="paint0_linear_25_15" x1="563" y1="13" x2="563" y2="463" gradientUnits="userSpaceOnUse">
<stop stop-color="#D9D9D9"/>
<stop offset="0.338542" stop-color="#D9D9D9" stop-opacity="0.8125"/>
<stop offset="1" stop-color="#D9D9D9" stop-opacity="0"/>
</linearGradient>
</defs>
</svg>
