<svg width="581" height="831" viewBox="0 0 581 831" fill="none" xmlns="http://www.w3.org/2000/svg">
<g filter="url(#filter0_dddf_34_18)">
<path d="M13 787.177L48.7325 813H225.994L300.261 759.329H507.65L563 719.329V269.709L507.65 229.709V80.3417L563 40.3417V13H357.013L319.178 40.3417H13L13 371.987L48.7325 397.81L48.7325 578.063L13 603.886L13 787.177Z" fill="url(#paint0_linear_34_18)" fill-opacity="0.5" shape-rendering="crispEdges"/>
<path d="M13 787.177L48.7325 813H225.994L300.261 759.329H507.65L563 719.329V269.709L507.65 229.709V80.3417L563 40.3417V13H357.013L319.178 40.3417H13L13 371.987L48.7325 397.81L48.7325 578.063L13 603.886L13 787.177Z" stroke="#2AD2FB" stroke-width="5" shape-rendering="crispEdges"/>
</g>
<defs>
<filter id="filter0_dddf_34_18" x="0.5" y="0.5" width="580" height="830" filterUnits="userSpaceOnUse" color-interpolation-filters="sRGB">
<feFlood flood-opacity="0" result="BackgroundImageFix"/>
<feColorMatrix in="SourceAlpha" type="matrix" values="0 0 0 0 0 0 0 0 0 0 0 0 0 0 0 0 0 0 127 0" result="hardAlpha"/>
<feOffset dx="10" dy="10"/>
<feGaussianBlur stdDeviation="2.5"/>
<feComposite in2="hardAlpha" operator="out"/>
<feColorMatrix type="matrix" values="0 0 0 0 0.164706 0 0 0 0 0.823529 0 0 0 0 0.984314 0 0 0 0.37 0"/>
<feBlend mode="normal" in2="BackgroundImageFix" result="effect1_dropShadow_34_18"/>
<feColorMatrix in="SourceAlpha" type="matrix" values="0 0 0 0 0 0 0 0 0 0 0 0 0 0 0 0 0 0 127 0" result="hardAlpha"/>
<feOffset dx="-5" dy="-5"/>
<feGaussianBlur stdDeviation="2.5"/>
<feComposite in2="hardAlpha" operator="out"/>
<feColorMatrix type="matrix" values="0 0 0 0 0.164706 0 0 0 0 0.823529 0 0 0 0 0.984314 0 0 0 0.48 0"/>
<feBlend mode="normal" in2="effect1_dropShadow_34_18" result="effect2_dropShadow_34_18"/>
<feColorMatrix in="SourceAlpha" type="matrix" values="0 0 0 0 0 0 0 0 0 0 0 0 0 0 0 0 0 0 127 0" result="hardAlpha"/>
<feOffset/>
<feGaussianBlur stdDeviation="2.5"/>
<feComposite in2="hardAlpha" operator="out"/>
<feColorMatrix type="matrix" values="0 0 0 0 0.164706 0 0 0 0 0.823529 0 0 0 0 0.984314 0 0 0 0.4 0"/>
<feBlend mode="normal" in2="effect2_dropShadow_34_18" result="effect3_dropShadow_34_18"/>
<feBlend mode="normal" in="SourceGraphic" in2="effect3_dropShadow_34_18" result="shape"/>
<feGaussianBlur stdDeviation="1.5" result="effect4_foregroundBlur_34_18"/>
</filter>
<linearGradient id="paint0_linear_34_18" x1="13" y1="413" x2="563" y2="413" gradientUnits="userSpaceOnUse">
<stop stop-color="#D9D9D9"/>
<stop offset="0.338542" stop-color="#D9D9D9" stop-opacity="0.8125"/>
<stop offset="1" stop-color="#D9D9D9" stop-opacity="0"/>
</linearGradient>
</defs>
</svg>
