<svg width="43" height="34" viewBox="0 0 43 34" fill="none" xmlns="http://www.w3.org/2000/svg">
<path d="M41.9762 2.82055H11.0571V1.11629C11.0571 0.551567 10.5989 0.0937347 10.0333 0.0937347H5.11905C4.5535 0.0937347 4.09524 0.551567 4.09524 1.11629V2.82055H1.02381C0.458257 2.82055 0 3.27838 0 3.84311V32.8837C0 33.4484 0.458257 33.9063 1.02381 33.9063H41.9762C42.5417 33.9063 43 33.4484 43 32.8837V3.84311C43 3.27838 42.5417 2.82055 41.9762 2.82055ZM6.14286 2.13885H9.00952V2.82055H6.14286V2.13885ZM40.9524 31.8611H2.04762V4.86566C3.5548 4.86566 39.1621 4.86566 40.9524 4.86566V31.8611Z" fill="white"/>
<path d="M21.5 26.6802C26.4302 26.6802 30.4413 22.6741 30.4413 17.7499C30.4413 12.8257 26.4302 8.81955 21.5 8.81955C16.5697 8.81955 12.5587 12.8257 12.5587 17.7499C12.5587 22.6741 16.5697 26.6802 21.5 26.6802ZM21.5 10.8647C25.3012 10.8647 28.3936 13.9533 28.3936 17.7499C28.3936 21.5464 25.3012 24.6351 21.5 24.6351C17.6988 24.6351 14.6063 21.5464 14.6063 17.7499C14.6063 13.9533 17.6988 10.8647 21.5 10.8647Z" fill="white"/>
<path d="M21.5 23.2717C24.5485 23.2717 27.0286 20.7945 27.0286 17.7499C27.0286 14.7052 24.5485 12.2281 21.5 12.2281C18.4515 12.2281 15.9714 14.7052 15.9714 17.7499C15.9714 20.7945 18.4515 23.2717 21.5 23.2717ZM21.5 14.2732C23.4194 14.2732 24.981 15.8328 24.981 17.7499C24.981 19.667 23.4194 21.2266 21.5 21.2266C19.5806 21.2266 18.0191 19.667 18.0191 17.7499C18.0191 15.8328 19.5806 14.2732 21.5 14.2732Z" fill="white"/>
<path d="M33.5127 13.3188H37.881C38.4465 13.3188 38.9048 12.861 38.9048 12.2962V7.93334C38.9048 7.36861 38.4465 6.91078 37.881 6.91078H33.5127C32.9471 6.91078 32.4889 7.36861 32.4889 7.93334V12.2962C32.4889 12.861 32.9471 13.3188 33.5127 13.3188ZM34.5365 8.9559H36.8571V11.2737H34.5365V8.9559Z" fill="white"/>
<path d="M5.25556 26.9529H9.21429C9.77984 26.9529 10.2381 26.4951 10.2381 25.9303C10.2381 25.3656 9.77984 24.9078 9.21429 24.9078H5.25556C4.69001 24.9078 4.23175 25.3656 4.23175 25.9303C4.23175 26.4951 4.69001 26.9529 5.25556 26.9529Z" fill="white"/>
<path d="M5.25556 29.816H9.21429C9.77984 29.816 10.2381 29.3582 10.2381 28.7935C10.2381 28.2288 9.77984 27.7709 9.21429 27.7709H5.25556C4.69001 27.7709 4.23175 28.2288 4.23175 28.7935C4.23175 29.3582 4.69001 29.816 5.25556 29.816Z" fill="white"/>
</svg>
